<svg xmlns="http://www.w3.org/2000/svg" fill="none" viewBox="0 0 283 64"><path fill="black" d="M141 16c-11 0-19 7-19 18s9 18 20 18c7 0 13-3 16-7l-7-5c-2 3-6 5-9 5-5 0-9-3-10-7h28l1-3c0-11-8-18-20-18zm-9 15c1-4 4-7 9-7s8 3 9 7h-18zm117-15c-11 0-19 7-19 18s9 18 20 18c6 0 12-3 15-7l-6-5c-2 3-5 5-8 5-5 0-9-3-11-7h28l1-3c0-11-8-18-20-18zm-10 15c1-4 4-7 9-7s8 3 9 7h-18zm-39 3c0 6 4 10 10 10 4 0 7-2 9-5l6 4c-3 4-8 7-15 7-10 0-19-7-19-18s9-18 20-18c7 0 13 3 16 7l-6 5c-2-3-5-5-9-5-6 0-10 4-10 10zm-45-2c-1-5-5-8-10-8-7 0-12 5-12 13s5 13 12 13c5 0 9-3 11-8l6 4c-3 6-9 10-17 10-12 0-21-8-21-19s9-19 21-19c7 0 14 3 17 10l-7 4z"/></svg>