<svg xmlns="http://www.w3.org/2000/svg" xmlns:xlink="http://www.w3.org/1999/xlink" aria-hidden="true" role="img" class="iconify iconify--logos" width="35.93" height="32" preserveAspectRatio="xMidYMid meet" viewBox="0 0 256 228"><path fill="#00D8FF" d="M210.483 73.824a171.49 171.49 0 0 0-8.24-2.597c.465-1.9.893-3.777 1.273-5.621c6.238-30.281 2.16-54.676-11.769-62.708c-13.355-7.7-35.196.329-57.254 19.526a171.23 171.23 0 0 0-6.375 5.848a155.866 155.866 0 0 0-4.241-3.917C100.759 3.829 77.587-4.822 63.673 3.233C50.33 10.957 46.379 33.89 51.995 62.588a170.974 170.974 0 0 0 1.892 8.48c-3.28.932-6.445 1.924-9.474 2.98C17.309 83.498 0 98.307 0 113.668c0 15.865 18.582 31.778 46.812 41.427a145.52 145.52 0 0 0 6.921 2.165a167.467 167.467 0 0 0-2.01 9.138c-5.354 28.2-1.173 50.591 12.134 58.266c13.744 7.926 36.812-.22 59.273-19.855a145.567 145.567 0 0 0 5.342-4.923a168.064 168.064 0 0 0 6.92 6.314c21.758 18.722 43.246 26.282 56.54 18.586c13.731-7.949 18.194-32.003 12.4-61.268a145.016 145.016 0 0 0-1.535-6.842c1.62-.48 3.21-.974 4.76-1.488c29.348-9.723 48.443-25.443 48.443-41.52c0-15.417-17.868-30.326-45.517-39.844Zm-6.365 70.984c-1.4.463-2.836.91-4.3 1.345c-3.24-10.257-7.612-21.163-12.963-32.432c5.106-11 9.31-21.767 12.459-31.957c2.619.758 5.16 1.557 7.61 2.4c23.69 8.156 38.14 20.213 38.14 29.504c0 9.896-15.606 22.743-40.946 31.14Zm-10.514 20.834c2.562 12.94 2.927 24.64 1.23 33.787c-1.524 8.219-4.59 13.698-8.382 15.893c-8.067 4.67-25.32-1.4-43.927-17.412a156.726 156.726 0 0 1-6.437-5.87c7.214-7.889 14.423-17.06 21.459-27.246c12.376-1.098 24.068-2.894 34.671-5.345a134.17 134.17 0 0 1 1.386 6.193ZM87.276 214.515c-7.882 2.783-14.16 2.863-17.955.675c-8.075-4.657-11.432-22.636-6.853-46.752a156.923 156.923 0 0 1 1.869-8.499c10.486 2.32 22.093 3.988 34.498 4.994c7.084 9.967 14.501 19.128 21.976 27.15a134.668 134.668 0 0 1-4.877 4.492c-9.933 8.682-19.886 14.842-28.658 17.94ZM50.35 144.747c-12.483-4.267-22.792-9.812-29.858-15.863c-6.35-5.437-9.555-10.836-9.555-15.216c0-9.322 13.897-21.212 30.599-27.891c2.866-1.143 6.067-2.279 9.545-3.439c-.487 4.082-.787 8.332-.787 12.719c0 3.992.418 7.902 1.18 11.676c-.51.15-1.036.29-1.567.43c-9.714 2.724-18.69 6.434-26.106 10.9c2.259 5.853 6.565 11.07 12.444 14.857c3.685 2.35 7.903 4.489 12.584 6.366c.963 4.252 2.379 8.27 4.321 12.001c-4.404-1.304-8.498-2.878-12.168-4.756c-4.753-2.369-9.186-5.219-13.167-8.623Zm73.124 69.536c-5.466 4.827-11.073 8.867-16.815 11.987c-5.793 3.162-11.602 5.662-17.112 7.301c4.598 2.684 9.939 4.079 15.561 4.079c10.195 0 21.076-4.459 31.367-12.723c1.398-1.096 2.803-2.274 4.215-3.528c-1.007 3.432-1.843 6.911-2.296 10.058c-3.829 1.557-8.133 3.017-12.79 4.193c-7.637 1.883-15.29 2.818-22.068 2.818c-8.961 0-17.143-1.698-23.304-4.662c-1.836 11.007-1.193 19.577 1.688 24.639c5.089 8.913 18.527 4.786 30.108-4.162c4.168-3.214 8.435-7.142 12.553-11.648c1.08 7.879.645 13.146-.402 16.166c-1.293 3.721-3.553 5.803-5.725 6.595c-3.962 1.499-10.213.491-16.831-2.591c5.111 4.542 11.004 7.117 16.337 7.117c5.018 0 9.852-2.666 13.37-7.505c3.521-4.844 4.216-11.944 2.184-20.448c.885-1.039 1.744-2.106 2.569-3.204c5.344-7.164 9.361-15.166 11.472-23.29c2.656 9.273 3.613 17.707 1.966 24.621c-1.369 5.761-4.072 10.062-7.502 12.632c0 0 7.498.081 13.243-3.455c3.894-2.398 6.346-6.003 7.928-10.467c2.348-6.685 2.51-15.452.34-25.493c7.231 3.152 13.017 6.718 17.163 10.56c5.927 5.442 8.827 11.289 8.827 16.668c0 2.96-1.143 6.127-3.489 9.223c1.009-1.111 1.857-2.314 2.539-3.615c4.36-8.016 2.224-18.117-5.814-27.549c-2.773-3.259-6.226-6.479-10.29-9.562c-.376-2.19-.859-4.328-1.477-6.384c-.477-1.619-1.068-3.207-1.779-4.758c6.03.898 11.579 2.035 16.524 3.376c4.645 1.288 8.84 2.759 12.455 4.392c4.233 1.957 7.547 4.015 9.978 6.022c3.583 2.859 5.108 5.491 5.108 7.218c0 2.14-2.243 4.968-5.836 7.665c-2.428 1.888-5.488 3.674-9.332 5.293Z"/></svg>